<svg xmlns="http://www.w3.org/2000/svg" viewBox="0 0 270.11 449.63"><defs><style>.cls-1{fill:#131616;}.cls-2,.cls-3{fill:#414042;}.cls-2{stroke:#414042;stroke-miterlimit:10;}.cls-4{fill:#6d6e71;}.cls-5{fill:#313738;}.cls-6,.cls-8{fill:#fff;}.cls-6{opacity:0.12;}.cls-7{fill:#58595b;}</style></defs><g id="Camada_2" data-name="Camada 2"><g id="Layer_2" data-name="Layer 2"><rect class="cls-1" x="31.2" y="396.61" width="210.36" height="25.24"/><path class="cls-2" d="M235,28.2A36.37,36.37,0,0,0,199.65.5H74.51A36.37,36.37,0,0,0,39.18,28.2l-18.45,75h232.7Z"/><path class="cls-3" d="M24,103.24H246.11a24,24,0,0,1,24,24v20.47a0,0,0,0,1,0,0H0a0,0,0,0,1,0,0V127.24A24,24,0,0,1,24,103.24Z"/><path class="cls-3" d="M137.84,147.72H20.73L56.27,418.94a11.43,11.43,0,0,0,11.33,9.94h139a11.43,11.43,0,0,0,11.33-9.94l35.54-271.22Z"/><path class="cls-4" d="M205,71.17l-9.52-45.79A17.68,17.68,0,0,0,178.17,11.3H91.94a17.67,17.67,0,0,0-17.3,14.08L65.11,71.17A17.68,17.68,0,0,0,82.42,92.44H187.7A17.68,17.68,0,0,0,205,71.17Z"/><rect class="cls-5" x="20.73" y="373.7" width="27.94" height="75.93"/><path class="cls-1" d="M48.66,373.7H41.47c1.06,7.64,2,15.32,1.61,23-.41,9-2.63,18.05-7.79,25.39a31.92,31.92,0,0,1-8.43,8.24,30.78,30.78,0,0,1-6.13,2.82v16.47H48.66Z"/><path class="cls-3" d="M20.89,384.08c-5.87,4.19-10,15-10,27.59S15,435.06,20.89,439.25Z"/><rect class="cls-5" x="226" y="373.64" width="27.94" height="75.93" transform="translate(481.68 822.2) rotate(179.76)"/><path class="cls-1" d="M225.84,373.7l7.2,0c-1,7.64-1.9,15.33-1.51,23,.45,9,2.7,18,7.89,25.36a32.23,32.23,0,0,0,8.47,8.2A30.47,30.47,0,0,0,254,433l.07,16.47-27.94.12Z"/><path class="cls-3" d="M253.67,384c5.88,4.16,10.1,14.91,10.15,27.54s-4.07,23.41-9.92,27.62Z"/><path class="cls-3" d="M137.84,147.72H20.73l1,7.65c53.58,9.26,110.08,1.91,161.51,19.58,13.26,4.56,26.93,11.67,32.85,24.38,3,6.51,3.7,13.85,4.2,21a651.14,651.14,0,0,1-5.11,138.33c-1.79,12.38-4.15,25.21-11.59,35.25-13.81,18.64-40,21.82-63.18,22.85-18.53.82-37.13,1.27-55.57-.7-9.09-1-18.37-2.63-26.17-7.4a33.47,33.47,0,0,1-4.13-3l1.73,13.23a11.43,11.43,0,0,0,11.33,9.94h139a11.43,11.43,0,0,0,11.33-9.94l35.54-271.22Z"/><path class="cls-6" d="M35.42,174.46c-2.1,4.55-1.16,9.86-.2,14.78q14.53,74.43,22.31,150c.6,5.81,3.43,13.49,9.19,12.51,5.32-.91,6-8.21,5.35-13.58C66.29,292,58,245.7,61,199.29c.4-6.13,1-12.4-.71-18.3C57.56,171.43,41.49,161.34,35.42,174.46Z"/><path class="cls-6" d="M7.43,113.86c.17,2.8,2.72,5,5.43,5.69s5.58.24,8.35-.17c28.14-4.16,56.72-3.7,85.17-3.92a7.12,7.12,0,0,0,3.43-.59,2.49,2.49,0,0,0,1.31-2.94c-.49-1.12-1.91-1.44-3.13-1.58a147.29,147.29,0,0,0-17.2-.64l-46.72.06C38.59,109.77,7,106,7.43,113.86Z"/><path class="cls-7" d="M195.48,25.38A17.68,17.68,0,0,0,178.17,11.3H91.94a17.67,17.67,0,0,0-17.3,14.08L65.11,71.17A17.68,17.68,0,0,0,82.42,92.44h23a29.1,29.1,0,0,1-4-17.9c1.65-14,12.57-25.58,25.36-31.47s27.24-6.93,41.32-6.89c10.3,0,21.57,1.15,30.75,5.33Z"/><path class="cls-8" d="M183.3,268.76c-.41-.85-2.48-1.65-5.27-2.34.3-4.5-.36-11.5-3.64-22.22-3.06-10-20.76-25.83-25.2-29.68a3.4,3.4,0,0,0-.21-1.38c-1.53-3.68-18.26-6.94-20-4.51-.54.77-.19,3,.62,5.77-4.1,1.68-10.28,5.68-18.88,14.91-8.2,8.78-13.35,38-13.35,38l.49-.88c-1.75,4,3.48,18.88,6.32,19.12.94.08,2.69-1.32,4.69-3.42,3.5,2.71,10.06,6.06,22.36,8.9,11.7,2.7,39.56-7.44,39.56-7.44h-.06C175.46,281.86,184.43,271.18,183.3,268.76Zm-46.45,11.33A52.22,52.22,0,0,1,118,270.46c1.44-2.22,2.41-4,2.47-4.75.23-2.71-19.44-3.47-22.31.28h0c2.46-4.3,10.82-18.37,19.28-26.39a52.24,52.24,0,0,1,17.77-11.53c1.2,2.37,2.27,4.11,2.87,4.52,2,1.36,10.26-11.25,11.07-17.33,2.69,4.66,10.36,18.5,13,29.55a53.48,53.48,0,0,1,1.34,19.56c-2.71-.15-4.8-.09-5.47.23-2.34,1.1,5.86,16.93,10.69,19C163.09,283.59,147.58,283.26,136.85,280.09Z"/><path class="cls-8" d="M98.19,301.52h3.15l1,3.82.32,1.51h.08l.32-1.51,1-3.82h3.15v11.71h-2.55v-2.76c0-1.38.25-4.57.39-5.94h0l-1,3.48-.61,2.12h-1.37l-.65-2.12-.9-3.48h-.07c.14,1.37.39,4.56.39,5.94v2.76H98.19Z"/><path class="cls-8" d="M111.59,301.52h3.74l3.53,11.71h-3.28l-1.31-5.69c-.25-1.12-.6-2.52-.85-3.71h-.07c-.25,1.19-.56,2.59-.81,3.71l-1.31,5.69h-3.17Zm-1,6.83h5.69v2.39H110.6Z"/><path class="cls-8" d="M120,301.52h3.37c3.34,0,5.7,1.66,5.7,5.8s-2.36,5.91-5.52,5.91H120Zm3.2,9.22c1.5,0,2.71-.68,2.71-3.42s-1.21-3.31-2.71-3.31h-.1v6.73Z"/><path class="cls-8" d="M131.17,301.52h8v2.6h-4.86V306h4.14v2.6h-4.14v2.09h5v2.59h-8.14Z"/><path class="cls-8" d="M141.64,310.64h2.67v-6.52h-2.67v-2.6h8.43v2.6h-2.66v6.52h2.66v2.59h-8.43Z"/><path class="cls-8" d="M152.3,301.52h4.36c2.52,0,4.68.87,4.68,3.79s-2.16,4-4.68,4H155.4v3.93h-3.1Zm4.14,5.33c1.23,0,1.87-.54,1.87-1.54s-.64-1.34-1.87-1.34h-1v2.88Zm1.75-.41,3.8,6.79h-3.46l-2.43-4.74Z"/><path class="cls-8" d="M165.59,301.52h3.74l3.53,11.71h-3.28l-1.31-5.69c-.25-1.12-.6-2.52-.85-3.71h-.07c-.25,1.19-.56,2.59-.81,3.71l-1.32,5.69h-3.16Zm-1,6.83h5.7v2.39h-5.7Z"/></g></g></svg>