<svg xmlns="http://www.w3.org/2000/svg" viewBox="0 0 270.11 449.13"><defs><style>.cls-1{fill:#131616;}.cls-2{fill:#26881b;}.cls-3{fill:#1b5912;}.cls-4{fill:#313738;}.cls-5{fill:#247520;}.cls-6,.cls-8{fill:#fff;}.cls-6{opacity:0.12;}.cls-7{fill:#153f0d;}</style></defs><g id="Camada_2" data-name="Camada 2"><g id="Layer_2" data-name="Layer 2"><rect class="cls-1" x="31.2" y="396.11" width="210.36" height="25.24"/><path class="cls-2" d="M235,27.7A36.37,36.37,0,0,0,199.65,0H74.51A36.37,36.37,0,0,0,39.18,27.7l-18.45,75h232.7Z"/><path class="cls-2" d="M24,102.74H246.11a24,24,0,0,1,24,24v20.47a0,0,0,0,1,0,0H0a0,0,0,0,1,0,0V126.74A24,24,0,0,1,24,102.74Z"/><path class="cls-2" d="M137.84,147.22H20.73L56.27,418.44a11.43,11.43,0,0,0,11.33,9.94h139a11.43,11.43,0,0,0,11.33-9.94l35.54-271.22Z"/><path class="cls-3" d="M205,70.67l-9.52-45.79A17.68,17.68,0,0,0,178.17,10.8H91.94a17.67,17.67,0,0,0-17.3,14.08L65.11,70.67A17.68,17.68,0,0,0,82.42,91.94H187.7A17.68,17.68,0,0,0,205,70.67Z"/><rect class="cls-4" x="20.73" y="373.2" width="27.94" height="75.93"/><path class="cls-1" d="M48.66,373.2H41.47c1.06,7.64,2,15.32,1.61,23-.41,9-2.63,18.05-7.79,25.39a31.92,31.92,0,0,1-8.43,8.24,30.78,30.78,0,0,1-6.13,2.82v16.47H48.66Z"/><path class="cls-2" d="M20.89,383.58c-5.87,4.19-10,15-10,27.59S15,434.56,20.89,438.75Z"/><rect class="cls-4" x="226" y="373.14" width="27.94" height="75.93" transform="translate(481.67 821.2) rotate(179.76)"/><path class="cls-1" d="M225.84,373.2l7.2,0c-1,7.64-1.9,15.33-1.51,23,.45,9,2.7,18,7.89,25.36a32.23,32.23,0,0,0,8.47,8.2,30.47,30.47,0,0,0,6.14,2.79L254.1,449l-27.94.12Z"/><path class="cls-2" d="M253.67,383.47c5.88,4.16,10.1,14.91,10.15,27.54s-4.07,23.41-9.92,27.62Z"/><path class="cls-5" d="M137.84,147.22H20.73l1,7.65c53.58,9.26,110.08,1.91,161.51,19.58,13.26,4.56,26.93,11.67,32.85,24.38,3,6.51,3.7,13.85,4.2,21a651.14,651.14,0,0,1-5.11,138.33c-1.79,12.38-4.15,25.21-11.59,35.25-13.81,18.64-40,21.82-63.18,22.85-18.53.82-37.13,1.27-55.57-.7-9.09-1-18.37-2.63-26.17-7.4a33.47,33.47,0,0,1-4.13-3l1.73,13.23a11.43,11.43,0,0,0,11.33,9.94h139a11.43,11.43,0,0,0,11.33-9.94l35.54-271.22Z"/><path class="cls-6" d="M35.42,174c-2.1,4.55-1.16,9.86-.2,14.78q14.53,74.43,22.31,150c.6,5.81,3.43,13.49,9.19,12.51,5.32-.91,6-8.21,5.35-13.58C66.29,291.5,58,245.2,61,198.79c.4-6.13,1-12.4-.71-18.3C57.56,170.93,41.49,160.84,35.42,174Z"/><path class="cls-6" d="M7.43,113.36c.17,2.8,2.72,5,5.43,5.69s5.58.24,8.35-.17c28.14-4.16,56.72-3.7,85.17-3.92a7.12,7.12,0,0,0,3.43-.59,2.49,2.49,0,0,0,1.31-2.94c-.49-1.12-1.91-1.44-3.13-1.58a147.29,147.29,0,0,0-17.2-.64l-46.72.06C38.59,109.27,7,105.52,7.43,113.36Z"/><path class="cls-7" d="M195.48,24.88A17.68,17.68,0,0,0,178.17,10.8H91.94a17.67,17.67,0,0,0-17.3,14.08L65.11,70.67A17.68,17.68,0,0,0,82.42,91.94h23a29.1,29.1,0,0,1-4-17.9c1.65-14,12.57-25.58,25.36-31.47s27.24-6.93,41.32-6.89c10.3,0,21.57,1.15,30.75,5.33Z"/><path class="cls-8" d="M183.3,268.26c-.41-.85-2.48-1.65-5.27-2.34.3-4.5-.36-11.5-3.64-22.22-3.06-10-20.76-25.83-25.2-29.68a3.4,3.4,0,0,0-.21-1.38c-1.53-3.68-18.26-6.94-20-4.51-.54.77-.19,3,.62,5.77-4.1,1.68-10.28,5.68-18.88,14.91-8.2,8.78-13.35,38-13.35,38l.49-.88c-1.75,4,3.48,18.88,6.32,19.12.94.08,2.69-1.32,4.69-3.42,3.5,2.71,10.06,6.06,22.36,8.9,11.7,2.7,39.56-7.44,39.56-7.44h-.06C175.46,281.36,184.43,270.68,183.3,268.26Zm-46.45,11.33A52.22,52.22,0,0,1,118,270c1.44-2.22,2.41-4,2.47-4.75.23-2.71-19.44-3.47-22.31.28h0c2.46-4.3,10.82-18.37,19.28-26.39a52.24,52.24,0,0,1,17.77-11.53c1.2,2.37,2.27,4.11,2.87,4.52,2,1.36,10.26-11.25,11.07-17.33,2.69,4.66,10.36,18.5,13,29.55a53.48,53.48,0,0,1,1.34,19.56c-2.71-.15-4.8-.09-5.47.23-2.34,1.1,5.86,16.93,10.69,19C163.09,283.09,147.58,282.76,136.85,279.59Z"/><path class="cls-8" d="M108.13,301.34h3.28l1.22,5.11c.32,1.24.54,2.45.86,3.71h.08c.32-1.26.56-2.47.86-3.71l1.19-5.11h3.17L115.33,313h-3.74Z"/><path class="cls-8" d="M120.05,310.45h2.66v-6.52h-2.66v-2.59h8.42v2.59h-2.66v6.52h2.66V313h-8.42Z"/><path class="cls-8" d="M130.81,301.34h3.37c3.34,0,5.7,1.65,5.7,5.79s-2.36,5.91-5.52,5.91h-3.55Zm3.2,9.22c1.5,0,2.7-.69,2.7-3.43s-1.2-3.31-2.7-3.31h-.1v6.74Z"/><path class="cls-8" d="M141.5,301.34h4.36c2.52,0,4.68.86,4.68,3.78s-2.16,4-4.68,4H144.6V313h-3.1Zm4.14,5.33c1.23,0,1.87-.54,1.87-1.55s-.64-1.34-1.87-1.34h-1v2.89Zm1.75-.42,3.8,6.79h-3.46l-2.43-4.74Z"/><path class="cls-8" d="M151.87,307.13c0-4,1.94-6,4.79-6s4.79,2.05,4.79,6-1.95,6.13-4.79,6.13S151.87,311.2,151.87,307.13Zm6.41,0c0-2.23-.61-3.35-1.62-3.35S155,304.9,155,307.13s.61,3.46,1.62,3.46S158.28,309.47,158.28,307.13Z"/></g></g></svg>