<svg id="Layer_2" data-name="Layer 2" xmlns="http://www.w3.org/2000/svg" viewBox="0 0 3696.98 536.6"><defs><style>.cls-1,.cls-21,.cls-8{fill:#fff;}.cls-2{fill:#dce6ef;}.cls-3{fill:#131616;}.cls-4{fill:#26881b;}.cls-5{fill:#1b5912;}.cls-6{fill:#313738;}.cls-7{fill:#247520;}.cls-8{opacity:0.12;}.cls-9{fill:#153f0d;}.cls-10{fill:#ea381b;}.cls-11{fill:#a0190b;}.cls-12{fill:#d62c1a;}.cls-13{fill:#770f0a;}.cls-14{fill:#f98715;}.cls-15{fill:#b25400;}.cls-16{fill:#f76c0d;}.cls-17{fill:#7f3900;}.cls-18{fill:#f7cb14;}.cls-19{fill:#c18e0e;}.cls-20{fill:#f4b80f;}.cls-21{opacity:0.44;}.cls-22{fill:#966c0c;}.cls-23{fill:#516bbf;}.cls-24{fill:#2f436b;}.cls-25{fill:#435c9b;}.cls-26{fill:#1f2d44;}.cls-27{fill:#754c29;}.cls-28{fill:#3c3e47;}.cls-29{fill:#603913;}.cls-30{fill:#292a30;}.cls-31{fill:#808285;}.cls-32{fill:#6d6e71;}.cls-33{fill:#58595b;}.cls-34,.cls-41{fill:#414042;}.cls-35{fill:#e6e7e8;}.cls-36{fill:#f1f2f2;}.cls-37{fill:#d1d3d4;}.cls-38{fill:#231f20;}.cls-39{fill:#662d91;}.cls-40{fill:#7f3f98;}.cls-41{stroke:#414042;stroke-miterlimit:10;}</style></defs><line class="cls-1" x1="2310.7" y1="536.6" y2="536.6"/><path class="cls-2" d="M3686.33,1931.42H103.57c-5.88,0-10.65-2.81-10.65-6.29h0c0-3.47,4.77-6.29,10.65-6.29H3686.33c5.88,0,10.65,2.82,10.65,6.29h0C3697,1928.61,3692.21,1931.42,3686.33,1931.42Z" transform="translate(0 -1463.4)"/><rect class="cls-3" x="1229.12" y="402.31" width="210.36" height="25.24"/><path class="cls-4" d="M1432.9,1497.3a36.38,36.38,0,0,0-35.33-27.7H1272.43a36.39,36.39,0,0,0-35.34,27.7l-18.44,75h232.7Z" transform="translate(0 -1463.4)"/><path class="cls-4" d="M1221.92,108.94H1444a24,24,0,0,1,24,24v20.47a0,0,0,0,1,0,0H1197.92a0,0,0,0,1,0,0V132.94A24,24,0,0,1,1221.92,108.94Z"/><path class="cls-4" d="M1335.75,1616.82h-117.1L1254.19,1888a11.42,11.42,0,0,0,11.33,9.94h139a11.41,11.41,0,0,0,11.32-9.94l35.55-271.22Z" transform="translate(0 -1463.4)"/><path class="cls-5" d="M1402.92,1540.26l-9.53-45.78a17.67,17.67,0,0,0-17.3-14.08h-86.23a17.68,17.68,0,0,0-17.31,14.08l-9.52,45.78a17.68,17.68,0,0,0,17.3,21.28h105.28A17.68,17.68,0,0,0,1402.92,1540.26Z" transform="translate(0 -1463.4)"/><rect class="cls-6" x="1218.65" y="379.4" width="27.94" height="75.93"/><path class="cls-3" d="M1246.58,1842.8h-7.2c1.07,7.64,2,15.32,1.61,23-.41,9-2.62,18-7.78,25.39a32,32,0,0,1-8.44,8.24,30.44,30.44,0,0,1-6.12,2.82v16.47h27.93Z" transform="translate(0 -1463.4)"/><path class="cls-4" d="M1218.8,1853.18c-5.86,4.19-10,15-10,27.58s4.18,23.4,10,27.59Z" transform="translate(0 -1463.4)"/><rect class="cls-6" x="1423.92" y="1842.74" width="27.94" height="75.93" transform="translate(2883.7 2291.93) rotate(179.76)"/><path class="cls-3" d="M1423.76,1842.8l7.2,0c-1,7.64-1.9,15.32-1.51,23,.44,9,2.7,18,7.89,25.35a31.77,31.77,0,0,0,8.47,8.2,30,30,0,0,0,6.14,2.8l.07,16.47-27.94.12Z" transform="translate(0 -1463.4)"/><path class="cls-4" d="M1451.58,1853.07c5.89,4.16,10.11,14.91,10.16,27.54s-4.08,23.41-9.93,27.62Z" transform="translate(0 -1463.4)"/><path class="cls-7" d="M1335.75,1616.82h-117.1l1,7.65c53.57,9.25,110.08,1.91,161.51,19.58,13.26,4.56,26.93,11.67,32.85,24.37,3,6.52,3.7,13.86,4.2,21a651.14,651.14,0,0,1-5.11,138.33c-1.79,12.37-4.15,25.2-11.59,35.25-13.81,18.63-40,21.82-63.19,22.85-18.52.82-37.12,1.27-55.56-.71-9.09-1-18.37-2.62-26.17-7.39a34.56,34.56,0,0,1-4.13-3l1.73,13.23a11.42,11.42,0,0,0,11.33,9.94h139a11.41,11.41,0,0,0,11.32-9.94l35.55-271.22Z" transform="translate(0 -1463.4)"/><path class="cls-8" d="M1233.34,1643.56c-2.11,4.55-1.17,9.86-.2,14.77q14.53,74.45,22.31,150c.6,5.81,3.43,13.49,9.18,12.51,5.33-.91,6-8.22,5.36-13.58-5.78-46.16-14.12-92.45-11.08-138.87.4-6.12,1-12.39-.7-18.29C1255.47,1640.53,1239.41,1630.44,1233.34,1643.56Z" transform="translate(0 -1463.4)"/><path class="cls-8" d="M1205.35,1583c.16,2.8,2.71,5,5.43,5.69s5.57.24,8.35-.17c28.13-4.16,56.72-3.7,85.17-3.92a7.24,7.24,0,0,0,3.43-.59,2.48,2.48,0,0,0,1.3-2.94c-.48-1.13-1.9-1.44-3.12-1.58a149.52,149.52,0,0,0-17.2-.65l-46.72.06C1236.51,1578.87,1204.9,1575.12,1205.35,1583Z" transform="translate(0 -1463.4)"/><path class="cls-9" d="M1393.39,1494.48a17.67,17.67,0,0,0-17.3-14.08h-86.23a17.68,17.68,0,0,0-17.31,14.08l-9.52,45.78a17.68,17.68,0,0,0,17.3,21.28h23a29,29,0,0,1-4-17.9c1.65-14,12.57-25.58,25.36-31.47s27.24-6.93,41.32-6.89c10.3,0,21.57,1.14,30.75,5.33Z" transform="translate(0 -1463.4)"/><path class="cls-1" d="M1381.21,1737.86c-.4-.85-2.47-1.66-5.27-2.34.31-4.5-.35-11.5-3.63-22.22-3.06-10-20.76-25.83-25.2-29.68a3.37,3.37,0,0,0-.21-1.38c-1.53-3.69-18.27-7-20-4.51-.54.77-.2,3,.62,5.77-4.1,1.67-10.28,5.68-18.89,14.91-8.19,8.78-13.34,38-13.34,38s.17-.32.49-.88c-1.75,4,3.48,18.88,6.32,19.12.94.08,2.68-1.33,4.69-3.42,3.5,2.71,10.06,6,22.35,8.9,11.71,2.7,39.57-7.44,39.57-7.44h-.06C1373.37,1751,1382.35,1740.28,1381.21,1737.86Zm-46.44,11.33a52.44,52.44,0,0,1-18.87-9.63c1.45-2.22,2.42-4,2.48-4.75.22-2.71-19.44-3.47-22.31.27l0,0c2.47-4.3,10.83-18.37,19.29-26.39a52.22,52.22,0,0,1,17.76-11.53c1.21,2.37,2.28,4.1,2.88,4.52,2,1.36,10.26-11.25,11.07-17.33,2.69,4.66,10.36,18.5,13,29.55a53.92,53.92,0,0,1,1.34,19.56c-2.71-.15-4.8-.09-5.47.22-2.34,1.11,5.85,16.94,10.69,19C1361,1752.68,1345.5,1752.36,1334.77,1749.19Z" transform="translate(0 -1463.4)"/><rect class="cls-3" x="130.64" y="402.31" width="210.36" height="25.24"/><path class="cls-10" d="M334.42,1497.3a36.38,36.38,0,0,0-35.33-27.7H174a36.39,36.39,0,0,0-35.34,27.7l-18.44,75h232.7Z" transform="translate(0 -1463.4)"/><path class="cls-10" d="M123.44,108.94H345.55a24,24,0,0,1,24,24v20.47a0,0,0,0,1,0,0H99.44a0,0,0,0,1,0,0V132.94A24,24,0,0,1,123.44,108.94Z"/><path class="cls-10" d="M237.28,1616.82H120.17L155.71,1888A11.42,11.42,0,0,0,167,1898H306a11.41,11.41,0,0,0,11.32-9.94l35.55-271.22Z" transform="translate(0 -1463.4)"/><path class="cls-11" d="M304.44,1540.26l-9.52-45.78a17.68,17.68,0,0,0-17.31-14.08H191.38a17.68,17.68,0,0,0-17.31,14.08l-9.52,45.78a17.68,17.68,0,0,0,17.31,21.28H287.13A17.68,17.68,0,0,0,304.44,1540.26Z" transform="translate(0 -1463.4)"/><rect class="cls-6" x="120.17" y="379.4" width="27.94" height="75.93"/><path class="cls-3" d="M148.1,1842.8h-7.19c1.06,7.64,2,15.32,1.6,23-.41,9-2.62,18-7.78,25.39a32.07,32.07,0,0,1-8.43,8.24,30.78,30.78,0,0,1-6.13,2.82v16.47H148.1Z" transform="translate(0 -1463.4)"/><path class="cls-10" d="M120.32,1853.18c-5.86,4.19-10,15-10,27.58s4.18,23.4,10,27.59Z" transform="translate(0 -1463.4)"/><rect class="cls-6" x="325.44" y="1842.74" width="27.94" height="75.93" transform="translate(686.75 2296.56) rotate(179.76)"/><path class="cls-3" d="M325.28,1842.8l7.2,0c-1,7.64-1.9,15.32-1.51,23,.44,9,2.7,18,7.89,25.35a31.92,31.92,0,0,0,8.47,8.2,30,30,0,0,0,6.14,2.8l.07,16.47-27.94.12Z" transform="translate(0 -1463.4)"/><path class="cls-10" d="M353.1,1853.07c5.89,4.16,10.11,14.91,10.16,27.54s-4.08,23.41-9.92,27.62Z" transform="translate(0 -1463.4)"/><path class="cls-12" d="M237.28,1616.82H120.17l1,7.65c53.58,9.25,110.08,1.91,161.51,19.58,13.26,4.56,26.93,11.67,32.85,24.37,3,6.52,3.7,13.86,4.2,21a651.14,651.14,0,0,1-5.11,138.33c-1.79,12.37-4.15,25.2-11.59,35.25-13.81,18.63-40,21.82-63.19,22.85-18.52.82-37.12,1.27-55.56-.71-9.09-1-18.37-2.62-26.17-7.39a34.56,34.56,0,0,1-4.13-3l1.73,13.23A11.42,11.42,0,0,0,167,1898H306a11.41,11.41,0,0,0,11.32-9.94l35.55-271.22Z" transform="translate(0 -1463.4)"/><path class="cls-8" d="M134.86,1643.56c-2.11,4.55-1.16,9.86-.2,14.77q14.53,74.45,22.31,150c.6,5.81,3.43,13.49,9.18,12.51,5.33-.91,6-8.22,5.36-13.58-5.78-46.16-14.12-92.45-11.08-138.87.41-6.12,1-12.39-.7-18.29C157,1640.53,140.93,1630.44,134.86,1643.56Z" transform="translate(0 -1463.4)"/><path class="cls-8" d="M106.87,1583c.17,2.8,2.72,5,5.43,5.69s5.57.24,8.35-.17c28.14-4.16,56.72-3.7,85.17-3.92a7.24,7.24,0,0,0,3.43-.59,2.48,2.48,0,0,0,1.3-2.94c-.48-1.13-1.9-1.44-3.12-1.58a149.52,149.52,0,0,0-17.2-.65l-46.72.06C138,1578.87,106.42,1575.12,106.87,1583Z" transform="translate(0 -1463.4)"/><path class="cls-13" d="M294.92,1494.48a17.68,17.68,0,0,0-17.31-14.08H191.38a17.68,17.68,0,0,0-17.31,14.08l-9.52,45.78a17.68,17.68,0,0,0,17.31,21.28h22.95a29.11,29.11,0,0,1-4-17.9c1.65-14,12.57-25.58,25.36-31.47s27.24-6.93,41.32-6.89c10.3,0,21.57,1.14,30.75,5.33Z" transform="translate(0 -1463.4)"/><path class="cls-1" d="M282.73,1737.86c-.4-.85-2.47-1.66-5.27-2.34.31-4.5-.35-11.5-3.63-22.22-3.06-10-20.76-25.83-25.2-29.68a3.37,3.37,0,0,0-.21-1.38c-1.53-3.69-18.26-7-20-4.51-.54.77-.2,3,.62,5.77-4.1,1.67-10.28,5.68-18.89,14.91-8.19,8.78-13.34,38-13.34,38s.17-.32.49-.88c-1.75,4,3.48,18.88,6.32,19.12.94.08,2.68-1.33,4.69-3.42,3.5,2.71,10.06,6,22.35,8.9,11.71,2.7,39.57-7.44,39.57-7.44h-.06C274.89,1751,283.87,1740.28,282.73,1737.86Zm-46.44,11.33a52.44,52.44,0,0,1-18.87-9.63c1.45-2.22,2.42-4,2.48-4.75.22-2.71-19.44-3.47-22.31.27v0c2.46-4.3,10.82-18.37,19.28-26.39a52.24,52.24,0,0,1,17.77-11.53c1.2,2.37,2.27,4.1,2.87,4.52,2,1.36,10.26-11.25,11.07-17.33,2.69,4.66,10.36,18.5,13,29.55a53.47,53.47,0,0,1,1.34,19.56c-2.71-.15-4.8-.09-5.47.22-2.34,1.11,5.86,16.94,10.69,19C262.53,1752.68,247,1752.36,236.29,1749.19Z" transform="translate(0 -1463.4)"/><rect class="cls-3" x="496.8" y="402.31" width="210.36" height="25.24"/><path class="cls-14" d="M700.58,1497.3a36.38,36.38,0,0,0-35.33-27.7H540.11a36.39,36.39,0,0,0-35.34,27.7l-18.44,75H719Z" transform="translate(0 -1463.4)"/><path class="cls-14" d="M489.6,108.94H711.71a24,24,0,0,1,24,24v20.47a0,0,0,0,1,0,0H465.6a0,0,0,0,1,0,0V132.94A24,24,0,0,1,489.6,108.94Z"/><path class="cls-14" d="M603.43,1616.82H486.33L521.87,1888A11.42,11.42,0,0,0,533.2,1898h139a11.41,11.41,0,0,0,11.32-9.94L719,1616.82Z" transform="translate(0 -1463.4)"/><path class="cls-15" d="M670.6,1540.26l-9.52-45.78a17.68,17.68,0,0,0-17.31-14.08H557.54a17.68,17.68,0,0,0-17.31,14.08l-9.52,45.78A17.68,17.68,0,0,0,548,1561.54H653.29A17.68,17.68,0,0,0,670.6,1540.26Z" transform="translate(0 -1463.4)"/><rect class="cls-6" x="486.33" y="379.4" width="27.94" height="75.93"/><path class="cls-3" d="M514.26,1842.8h-7.19c1.06,7.64,2,15.32,1.6,23-.41,9-2.62,18-7.78,25.39a32.07,32.07,0,0,1-8.43,8.24,30.78,30.78,0,0,1-6.13,2.82v16.47h27.93Z" transform="translate(0 -1463.4)"/><path class="cls-14" d="M486.48,1853.18c-5.86,4.19-10,15-10,27.58s4.18,23.4,10,27.59Z" transform="translate(0 -1463.4)"/><rect class="cls-6" x="691.6" y="1842.74" width="27.94" height="75.93" transform="translate(1419.06 2295.02) rotate(179.76)"/><path class="cls-3" d="M691.44,1842.8l7.2,0c-1,7.64-1.9,15.32-1.51,23,.44,9,2.7,18,7.89,25.35a31.77,31.77,0,0,0,8.47,8.2,30,30,0,0,0,6.14,2.8l.07,16.47-27.94.12Z" transform="translate(0 -1463.4)"/><path class="cls-14" d="M719.26,1853.07c5.89,4.16,10.11,14.91,10.16,27.54s-4.08,23.41-9.92,27.62Z" transform="translate(0 -1463.4)"/><path class="cls-16" d="M603.43,1616.82H486.33l1,7.65c53.58,9.25,110.08,1.91,161.51,19.58,13.26,4.56,26.93,11.67,32.85,24.37,3,6.52,3.7,13.86,4.2,21a651.14,651.14,0,0,1-5.11,138.33c-1.79,12.37-4.15,25.2-11.59,35.25-13.81,18.63-40,21.82-63.19,22.85-18.52.82-37.12,1.27-55.56-.71-9.09-1-18.37-2.62-26.17-7.39a34.56,34.56,0,0,1-4.13-3l1.73,13.23A11.42,11.42,0,0,0,533.2,1898h139a11.41,11.41,0,0,0,11.32-9.94L719,1616.82Z" transform="translate(0 -1463.4)"/><path class="cls-8" d="M501,1643.56c-2.11,4.55-1.16,9.86-.2,14.77q14.54,74.45,22.31,150c.6,5.81,3.43,13.49,9.18,12.51,5.33-.91,6-8.22,5.36-13.58-5.78-46.16-14.12-92.45-11.08-138.87.4-6.12,1-12.39-.7-18.29C523.15,1640.53,507.09,1630.44,501,1643.56Z" transform="translate(0 -1463.4)"/><path class="cls-8" d="M473,1583c.16,2.8,2.71,5,5.43,5.69s5.57.24,8.35-.17c28.14-4.16,56.72-3.7,85.17-3.92a7.24,7.24,0,0,0,3.43-.59,2.48,2.48,0,0,0,1.3-2.94c-.48-1.13-1.9-1.44-3.12-1.58a149.52,149.52,0,0,0-17.2-.65l-46.72.06C504.19,1578.87,472.58,1575.12,473,1583Z" transform="translate(0 -1463.4)"/><path class="cls-17" d="M661.08,1494.48a17.68,17.68,0,0,0-17.31-14.08H557.54a17.68,17.68,0,0,0-17.31,14.08l-9.52,45.78A17.68,17.68,0,0,0,548,1561.54h23a29.11,29.11,0,0,1-4-17.9c1.65-14,12.57-25.58,25.36-31.47s27.24-6.93,41.32-6.89c10.3,0,21.57,1.14,30.75,5.33Z" transform="translate(0 -1463.4)"/><path class="cls-1" d="M648.89,1737.86c-.4-.85-2.47-1.66-5.27-2.34.31-4.5-.35-11.5-3.63-22.22-3.06-10-20.76-25.83-25.2-29.68a3.37,3.37,0,0,0-.21-1.38c-1.53-3.69-18.27-7-20-4.51-.54.77-.2,3,.62,5.77-4.1,1.67-10.28,5.68-18.89,14.91-8.19,8.78-13.34,38-13.34,38s.17-.32.49-.88c-1.75,4,3.48,18.88,6.32,19.12.94.08,2.68-1.33,4.69-3.42,3.5,2.71,10.06,6,22.35,8.9,11.71,2.7,39.57-7.44,39.57-7.44h-.06C641.05,1751,650,1740.28,648.89,1737.86Zm-46.44,11.33a52.44,52.44,0,0,1-18.87-9.63c1.45-2.22,2.42-4,2.48-4.75.22-2.71-19.44-3.47-22.31.27v0c2.46-4.3,10.82-18.37,19.28-26.39a52.24,52.24,0,0,1,17.77-11.53c1.2,2.37,2.27,4.1,2.87,4.52,2,1.36,10.26-11.25,11.07-17.33,2.69,4.66,10.36,18.5,13,29.55a53.47,53.47,0,0,1,1.34,19.56c-2.71-.15-4.8-.09-5.47.22-2.34,1.11,5.85,16.94,10.69,19C628.69,1752.68,613.18,1752.36,602.45,1749.19Z" transform="translate(0 -1463.4)"/><rect class="cls-3" x="862.96" y="402.31" width="210.36" height="25.24"/><path class="cls-18" d="M1066.74,1497.3a36.38,36.38,0,0,0-35.33-27.7H906.27a36.39,36.39,0,0,0-35.34,27.7l-18.44,75h232.7Z" transform="translate(0 -1463.4)"/><path class="cls-18" d="M855.76,108.94h222.11a24,24,0,0,1,24,24v20.47a0,0,0,0,1,0,0H831.76a0,0,0,0,1,0,0V132.94A24,24,0,0,1,855.76,108.94Z"/><path class="cls-18" d="M969.59,1616.82H852.49L888,1888a11.42,11.42,0,0,0,11.33,9.94h139a11.41,11.41,0,0,0,11.32-9.94l35.55-271.22Z" transform="translate(0 -1463.4)"/><path class="cls-19" d="M1036.76,1540.26l-9.52-45.78a17.68,17.68,0,0,0-17.31-14.08H923.7a17.68,17.68,0,0,0-17.31,14.08l-9.52,45.78a17.68,17.68,0,0,0,17.31,21.28h105.27A17.68,17.68,0,0,0,1036.76,1540.26Z" transform="translate(0 -1463.4)"/><rect class="cls-6" x="852.49" y="379.4" width="27.94" height="75.93"/><path class="cls-3" d="M880.42,1842.8h-7.19c1.06,7.64,2,15.32,1.6,23-.41,9-2.62,18-7.78,25.39a32.07,32.07,0,0,1-8.43,8.24,30.78,30.78,0,0,1-6.13,2.82v16.47h27.93Z" transform="translate(0 -1463.4)"/><path class="cls-18" d="M852.64,1853.18c-5.86,4.19-10,15-10,27.58s4.18,23.4,10,27.59Z" transform="translate(0 -1463.4)"/><rect class="cls-6" x="1057.76" y="1842.74" width="27.94" height="75.93" transform="translate(2151.38 2293.47) rotate(179.76)"/><path class="cls-3" d="M1057.6,1842.8l7.2,0c-1,7.64-1.9,15.32-1.51,23,.44,9,2.7,18,7.89,25.35a31.77,31.77,0,0,0,8.47,8.2,30,30,0,0,0,6.14,2.8l.07,16.47-27.94.12Z" transform="translate(0 -1463.4)"/><path class="cls-18" d="M1085.42,1853.07c5.89,4.16,10.11,14.91,10.16,27.54s-4.08,23.41-9.92,27.62Z" transform="translate(0 -1463.4)"/><path class="cls-20" d="M969.59,1616.82H852.49l1,7.65c53.58,9.25,110.08,1.91,161.51,19.58,13.26,4.56,26.93,11.67,32.85,24.37,3,6.52,3.7,13.86,4.2,21a651.14,651.14,0,0,1-5.11,138.33c-1.79,12.37-4.15,25.2-11.59,35.25-13.81,18.63-40,21.82-63.19,22.85-18.52.82-37.12,1.27-55.56-.71-9.09-1-18.37-2.62-26.17-7.39a34.56,34.56,0,0,1-4.13-3L888,1888a11.42,11.42,0,0,0,11.33,9.94h139a11.41,11.41,0,0,0,11.32-9.94l35.55-271.22Z" transform="translate(0 -1463.4)"/><path class="cls-21" d="M867.18,1643.56c-2.11,4.55-1.16,9.86-.2,14.77q14.53,74.45,22.31,150c.6,5.81,3.43,13.49,9.18,12.51,5.33-.91,6-8.22,5.36-13.58-5.78-46.16-14.12-92.45-11.08-138.87.4-6.12,1-12.39-.7-18.29C889.31,1640.53,873.25,1630.44,867.18,1643.56Z" transform="translate(0 -1463.4)"/><path class="cls-21" d="M839.19,1583c.16,2.8,2.71,5,5.43,5.69s5.57.24,8.35-.17c28.14-4.16,56.72-3.7,85.17-3.92a7.24,7.24,0,0,0,3.43-.59,2.48,2.48,0,0,0,1.3-2.94c-.48-1.13-1.9-1.44-3.12-1.58a149.52,149.52,0,0,0-17.2-.65l-46.72.06C870.35,1578.87,838.74,1575.12,839.19,1583Z" transform="translate(0 -1463.4)"/><path class="cls-22" d="M1027.24,1494.48a17.68,17.68,0,0,0-17.31-14.08H923.7a17.68,17.68,0,0,0-17.31,14.08l-9.52,45.78a17.68,17.68,0,0,0,17.31,21.28h23a29,29,0,0,1-4-17.9c1.65-14,12.57-25.58,25.36-31.47s27.24-6.93,41.32-6.89c10.3,0,21.57,1.14,30.75,5.33Z" transform="translate(0 -1463.4)"/><path class="cls-1" d="M1015.05,1737.86c-.4-.85-2.47-1.66-5.27-2.34.31-4.5-.35-11.5-3.63-22.22-3.06-10-20.76-25.83-25.2-29.68a3.37,3.37,0,0,0-.21-1.38c-1.53-3.69-18.27-7-20-4.51-.54.77-.2,3,.62,5.77-4.1,1.67-10.28,5.68-18.89,14.91-8.19,8.78-13.34,38-13.34,38s.17-.32.49-.88c-1.75,4,3.48,18.88,6.32,19.12.94.08,2.68-1.33,4.69-3.42,3.5,2.71,10.06,6,22.35,8.9,11.71,2.7,39.57-7.44,39.57-7.44h-.06C1007.21,1751,1016.19,1740.28,1015.05,1737.86Zm-46.44,11.33a52.44,52.44,0,0,1-18.87-9.63c1.45-2.22,2.42-4,2.48-4.75.22-2.71-19.44-3.47-22.31.27l0,0c2.47-4.3,10.83-18.37,19.29-26.39a52.22,52.22,0,0,1,17.76-11.53c1.21,2.37,2.28,4.1,2.88,4.52,2,1.36,10.26-11.25,11.07-17.33,2.69,4.66,10.36,18.5,13,29.55a53.47,53.47,0,0,1,1.34,19.56c-2.71-.15-4.8-.09-5.47.22-2.34,1.11,5.85,16.94,10.69,19C994.84,1752.68,979.34,1752.36,968.61,1749.19Z" transform="translate(0 -1463.4)"/><rect class="cls-3" x="1595.28" y="402.31" width="210.36" height="25.24"/><path class="cls-23" d="M1799.06,1497.3a36.38,36.38,0,0,0-35.33-27.7H1638.58a36.39,36.39,0,0,0-35.33,27.7l-18.45,75h232.71Z" transform="translate(0 -1463.4)"/><path class="cls-23" d="M1588.08,108.94h222.11a24,24,0,0,1,24,24v20.47a0,0,0,0,1,0,0H1564.08a0,0,0,0,1,0,0V132.94A24,24,0,0,1,1588.08,108.94Z"/><path class="cls-23" d="M1701.91,1616.82H1584.8L1620.35,1888a11.42,11.42,0,0,0,11.33,9.94h139A11.42,11.42,0,0,0,1782,1888l35.55-271.22Z" transform="translate(0 -1463.4)"/><path class="cls-24" d="M1769.08,1540.26l-9.53-45.78a17.67,17.67,0,0,0-17.3-14.08H1656a17.68,17.68,0,0,0-17.31,14.08l-9.52,45.78a17.68,17.68,0,0,0,17.3,21.28h105.28A17.68,17.68,0,0,0,1769.08,1540.26Z" transform="translate(0 -1463.4)"/><rect class="cls-6" x="1584.8" y="379.4" width="27.94" height="75.93"/><path class="cls-3" d="M1612.74,1842.8h-7.2c1.07,7.64,2,15.32,1.61,23-.41,9-2.62,18-7.78,25.39a32.11,32.11,0,0,1-8.44,8.24,30.27,30.27,0,0,1-6.13,2.82v16.47h27.94Z" transform="translate(0 -1463.4)"/><path class="cls-23" d="M1585,1853.18c-5.86,4.19-10,15-10,27.58s4.18,23.4,10,27.59Z" transform="translate(0 -1463.4)"/><rect class="cls-6" x="1790.08" y="1842.74" width="27.94" height="75.93" transform="translate(3616.01 2290.38) rotate(179.76)"/><path class="cls-3" d="M1789.92,1842.8l7.2,0c-1,7.64-1.9,15.32-1.51,23,.44,9,2.7,18,7.89,25.35a31.77,31.77,0,0,0,8.47,8.2,30,30,0,0,0,6.14,2.8l.07,16.47-27.94.12Z" transform="translate(0 -1463.4)"/><path class="cls-23" d="M1817.74,1853.07c5.89,4.16,10.11,14.91,10.16,27.54s-4.08,23.41-9.93,27.62Z" transform="translate(0 -1463.4)"/><path class="cls-25" d="M1701.91,1616.82H1584.8l1,7.65c53.57,9.25,110.08,1.91,161.51,19.58,13.26,4.56,26.93,11.67,32.85,24.37,3,6.52,3.7,13.86,4.2,21a651.14,651.14,0,0,1-5.11,138.33c-1.79,12.37-4.15,25.2-11.59,35.25-13.81,18.63-40,21.82-63.19,22.85-18.52.82-37.12,1.27-55.56-.71-9.09-1-18.37-2.62-26.17-7.39a33.77,33.77,0,0,1-4.13-3l1.73,13.23a11.42,11.42,0,0,0,11.33,9.94h139A11.42,11.42,0,0,0,1782,1888l35.55-271.22Z" transform="translate(0 -1463.4)"/><path class="cls-8" d="M1599.5,1643.56c-2.11,4.55-1.17,9.86-.2,14.77q14.54,74.45,22.31,150c.6,5.81,3.43,13.49,9.18,12.51,5.33-.91,6-8.22,5.36-13.58-5.78-46.16-14.12-92.45-11.08-138.87.4-6.12,1-12.39-.7-18.29C1621.63,1640.53,1605.57,1630.44,1599.5,1643.56Z" transform="translate(0 -1463.4)"/><path class="cls-8" d="M1571.51,1583c.16,2.8,2.71,5,5.43,5.69s5.57.24,8.34-.17c28.14-4.16,56.73-3.7,85.18-3.92a7.24,7.24,0,0,0,3.43-.59,2.48,2.48,0,0,0,1.3-2.94c-.48-1.13-1.9-1.44-3.12-1.58a149.52,149.52,0,0,0-17.2-.65l-46.72.06C1602.67,1578.87,1571.05,1575.12,1571.51,1583Z" transform="translate(0 -1463.4)"/><path class="cls-26" d="M1759.55,1494.48a17.67,17.67,0,0,0-17.3-14.08H1656a17.68,17.68,0,0,0-17.31,14.08l-9.52,45.78a17.68,17.68,0,0,0,17.3,21.28h23a29,29,0,0,1-4-17.9c1.65-14,12.57-25.58,25.36-31.47s27.24-6.93,41.32-6.89c10.3,0,21.57,1.14,30.75,5.33Z" transform="translate(0 -1463.4)"/><path class="cls-1" d="M1747.37,1737.86c-.4-.85-2.47-1.66-5.27-2.34.31-4.5-.35-11.5-3.63-22.22-3.06-10-20.76-25.83-25.2-29.68a3.37,3.37,0,0,0-.21-1.38c-1.53-3.69-18.27-7-20-4.51-.54.77-.2,3,.62,5.77-4.1,1.67-10.28,5.68-18.89,14.91-8.19,8.78-13.34,38-13.34,38s.17-.32.49-.88c-1.75,4,3.48,18.88,6.32,19.12.94.08,2.68-1.33,4.69-3.42,3.5,2.71,10.06,6,22.35,8.9,11.71,2.7,39.56-7.44,39.56-7.44h-.05C1739.53,1751,1748.51,1740.28,1747.37,1737.86Zm-46.44,11.33a52.44,52.44,0,0,1-18.87-9.63c1.45-2.22,2.42-4,2.48-4.75.22-2.71-19.44-3.47-22.31.27l0,0c2.47-4.3,10.83-18.37,19.29-26.39a52.22,52.22,0,0,1,17.76-11.53c1.21,2.37,2.28,4.1,2.88,4.52,2,1.36,10.25-11.25,11.06-17.33,2.7,4.66,10.37,18.5,13,29.55a53.92,53.92,0,0,1,1.34,19.56c-2.71-.15-4.8-.09-5.47.22-2.34,1.11,5.85,16.94,10.69,19C1727.16,1752.68,1711.66,1752.36,1700.93,1749.19Z" transform="translate(0 -1463.4)"/><rect class="cls-3" x="1961.44" y="402.31" width="210.36" height="25.24"/><path class="cls-27" d="M2165.22,1497.3a36.38,36.38,0,0,0-35.33-27.7H2004.74a36.39,36.39,0,0,0-35.33,27.7l-18.45,75h232.71Z" transform="translate(0 -1463.4)"/><path class="cls-27" d="M1954.24,108.94h222.11a24,24,0,0,1,24,24v20.47a0,0,0,0,1,0,0H1930.24a0,0,0,0,1,0,0V132.94A24,24,0,0,1,1954.24,108.94Z"/><path class="cls-27" d="M2068.07,1616.82H1951L1986.51,1888a11.42,11.42,0,0,0,11.33,9.94h139a11.42,11.42,0,0,0,11.33-9.94l35.55-271.22Z" transform="translate(0 -1463.4)"/><path class="cls-28" d="M2135.24,1540.26l-9.53-45.78a17.67,17.67,0,0,0-17.3-14.08h-86.23a17.68,17.68,0,0,0-17.31,14.08l-9.52,45.78a17.68,17.68,0,0,0,17.3,21.28h105.28A17.68,17.68,0,0,0,2135.24,1540.26Z" transform="translate(0 -1463.4)"/><rect class="cls-6" x="1950.96" y="379.4" width="27.94" height="75.93"/><path class="cls-3" d="M1978.9,1842.8h-7.2c1.07,7.64,2,15.32,1.61,23-.41,9-2.62,18-7.79,25.39a32.07,32.07,0,0,1-8.43,8.24,30.27,30.27,0,0,1-6.13,2.82v16.47h27.94Z" transform="translate(0 -1463.4)"/><path class="cls-27" d="M1951.12,1853.18c-5.86,4.19-10,15-10,27.58s4.18,23.4,10,27.59Z" transform="translate(0 -1463.4)"/><rect class="cls-6" x="2156.24" y="1842.74" width="27.94" height="75.93" transform="translate(4348.33 2288.84) rotate(179.76)"/><path class="cls-3" d="M2156.08,1842.8l7.2,0c-1,7.64-1.9,15.32-1.51,23,.44,9,2.7,18,7.89,25.35a31.77,31.77,0,0,0,8.47,8.2,30,30,0,0,0,6.14,2.8l.07,16.47-27.94.12Z" transform="translate(0 -1463.4)"/><path class="cls-27" d="M2183.9,1853.07c5.89,4.16,10.11,14.91,10.16,27.54s-4.08,23.41-9.93,27.62Z" transform="translate(0 -1463.4)"/><path class="cls-29" d="M2068.07,1616.82H1951l1,7.65c53.57,9.25,110.08,1.91,161.51,19.58,13.26,4.56,26.93,11.67,32.85,24.37,3,6.52,3.7,13.86,4.2,21a650.49,650.49,0,0,1-5.12,138.33c-1.78,12.37-4.14,25.2-11.58,35.25-13.81,18.63-40,21.82-63.19,22.85-18.52.82-37.12,1.27-55.56-.71-9.09-1-18.37-2.62-26.17-7.39a33.77,33.77,0,0,1-4.13-3l1.73,13.23a11.42,11.42,0,0,0,11.33,9.94h139a11.42,11.42,0,0,0,11.33-9.94l35.55-271.22Z" transform="translate(0 -1463.4)"/><path class="cls-8" d="M1965.66,1643.56c-2.11,4.55-1.17,9.86-.21,14.77q14.55,74.45,22.32,150c.6,5.81,3.43,13.49,9.18,12.51,5.33-.91,6-8.22,5.36-13.58-5.78-46.16-14.12-92.45-11.08-138.87.4-6.12,1-12.39-.7-18.29C1987.79,1640.53,1971.73,1630.44,1965.66,1643.56Z" transform="translate(0 -1463.4)"/><path class="cls-8" d="M1937.67,1583c.16,2.8,2.71,5,5.43,5.69s5.57.24,8.34-.17c28.14-4.16,56.73-3.7,85.18-3.92a7.24,7.24,0,0,0,3.43-.59,2.48,2.48,0,0,0,1.3-2.94c-.48-1.13-1.9-1.44-3.12-1.58a149.52,149.52,0,0,0-17.2-.65l-46.72.06C1968.83,1578.87,1937.21,1575.12,1937.67,1583Z" transform="translate(0 -1463.4)"/><path class="cls-30" d="M2125.71,1494.48a17.67,17.67,0,0,0-17.3-14.08h-86.23a17.68,17.68,0,0,0-17.31,14.08l-9.52,45.78a17.68,17.68,0,0,0,17.3,21.28h23a29,29,0,0,1-4-17.9c1.65-14,12.57-25.58,25.36-31.47s27.24-6.93,41.32-6.89c10.3,0,21.57,1.14,30.75,5.33Z" transform="translate(0 -1463.4)"/><path class="cls-1" d="M2113.53,1737.86c-.4-.85-2.47-1.66-5.27-2.34.31-4.5-.36-11.5-3.63-22.22-3.06-10-20.76-25.83-25.21-29.68a3.22,3.22,0,0,0-.2-1.38c-1.53-3.69-18.27-7-20-4.51-.54.77-.2,3,.62,5.77-4.1,1.67-10.28,5.68-18.89,14.91-8.19,8.78-13.34,38-13.34,38s.17-.32.49-.88c-1.75,4,3.48,18.88,6.32,19.12.94.08,2.68-1.33,4.69-3.42,3.5,2.71,10.06,6,22.35,8.9,11.7,2.7,39.56-7.44,39.56-7.44h0C2105.69,1751,2114.67,1740.28,2113.53,1737.86Zm-46.44,11.33a52.44,52.44,0,0,1-18.87-9.63c1.45-2.22,2.42-4,2.48-4.75.22-2.71-19.44-3.47-22.31.27l0,0c2.47-4.3,10.83-18.37,19.29-26.39a52.22,52.22,0,0,1,17.76-11.53c1.21,2.37,2.28,4.1,2.88,4.52,2,1.36,10.25-11.25,11.06-17.33,2.7,4.66,10.37,18.5,13,29.55a53.92,53.92,0,0,1,1.34,19.56c-2.71-.15-4.8-.09-5.47.22-2.34,1.11,5.85,16.94,10.69,19C2093.32,1752.68,2077.82,1752.36,2067.09,1749.19Z" transform="translate(0 -1463.4)"/><rect class="cls-3" x="3061.94" y="400.89" width="210.36" height="25.24"/><path class="cls-31" d="M3265.72,1495.88a36.39,36.39,0,0,0-35.33-27.69H3105.24a36.38,36.38,0,0,0-35.33,27.69l-18.45,75h232.71Z" transform="translate(0 -1463.4)"/><path class="cls-32" d="M3054.74,107.52h222.11a24,24,0,0,1,24,24V152a0,0,0,0,1,0,0H3030.73a0,0,0,0,1,0,0V131.53A24,24,0,0,1,3054.74,107.52Z"/><path class="cls-31" d="M3168.57,1615.4H3051.46L3087,1886.63a11.42,11.42,0,0,0,11.33,9.94h138.95a11.42,11.42,0,0,0,11.33-9.94l35.55-271.23Z" transform="translate(0 -1463.4)"/><path class="cls-33" d="M3235.73,1538.85l-9.52-45.79a17.66,17.66,0,0,0-17.3-14.07h-86.24a17.66,17.66,0,0,0-17.3,14.07l-9.52,45.79a17.67,17.67,0,0,0,17.3,21.28h105.28A17.67,17.67,0,0,0,3235.73,1538.85Z" transform="translate(0 -1463.4)"/><rect class="cls-6" x="3051.46" y="377.98" width="27.94" height="75.93"/><path class="cls-3" d="M3079.4,1841.39h-7.2c1.07,7.63,2,15.31,1.61,23-.41,9-2.62,18-7.79,25.39a31.88,31.88,0,0,1-8.43,8.23,30.31,30.31,0,0,1-6.13,2.83v16.47h27.94Z" transform="translate(0 -1463.4)"/><path class="cls-31" d="M3051.62,1851.77c-5.87,4.19-10,15-10,27.58s4.17,23.4,10,27.58Z" transform="translate(0 -1463.4)"/><rect class="cls-6" x="3256.74" y="1841.33" width="27.94" height="75.93" transform="translate(6549.31 2281.37) rotate(179.76)"/><path class="cls-3" d="M3256.58,1841.39l7.19,0c-1,7.64-1.89,15.32-1.51,23,.45,9,2.7,18,7.9,25.36a31.88,31.88,0,0,0,8.46,8.2,30.22,30.22,0,0,0,6.14,2.8l.07,16.47-27.93.12Z" transform="translate(0 -1463.4)"/><path class="cls-31" d="M3284.4,1851.65c5.88,4.16,10.11,14.91,10.16,27.54s-4.08,23.42-9.93,27.63Z" transform="translate(0 -1463.4)"/><path class="cls-32" d="M3168.57,1615.4H3051.46l1,7.65c53.58,9.26,110.08,1.92,161.51,19.59,13.26,4.56,26.93,11.66,32.86,24.37,3,6.52,3.7,13.85,4.2,21a651.26,651.26,0,0,1-5.12,138.34c-1.79,12.37-4.14,25.2-11.58,35.25-13.82,18.63-40,21.82-63.19,22.85-18.52.82-37.13,1.27-55.56-.71-9.09-1-18.37-2.63-26.18-7.39a34.56,34.56,0,0,1-4.13-3l1.74,13.23a11.42,11.42,0,0,0,11.33,9.94h138.95a11.42,11.42,0,0,0,11.33-9.94l35.55-271.23Z" transform="translate(0 -1463.4)"/><path class="cls-8" d="M3066.16,1642.15c-2.11,4.55-1.17,9.85-.21,14.77q14.53,74.44,22.32,150c.59,5.81,3.42,13.49,9.18,12.51,5.33-.91,6-8.22,5.36-13.58-5.79-46.16-14.12-92.45-11.08-138.87.4-6.12,1-12.4-.7-18.3C3088.29,1639.12,3072.23,1629,3066.16,1642.15Z" transform="translate(0 -1463.4)"/><path class="cls-8" d="M3038.17,1581.55c.16,2.8,2.71,5,5.43,5.68s5.57.25,8.34-.16c28.14-4.17,56.73-3.71,85.17-3.92a7.15,7.15,0,0,0,3.44-.6,2.47,2.47,0,0,0,1.3-2.93c-.48-1.13-1.91-1.45-3.12-1.59a149.6,149.6,0,0,0-17.2-.64l-46.72.06C3069.33,1577.46,3037.71,1573.71,3038.17,1581.55Z" transform="translate(0 -1463.4)"/><path class="cls-34" d="M3226.21,1493.06a17.66,17.66,0,0,0-17.3-14.07h-86.24a17.66,17.66,0,0,0-17.3,14.07l-9.52,45.79a17.67,17.67,0,0,0,17.3,21.28h23a29.06,29.06,0,0,1-4-17.91c1.65-14,12.57-25.57,25.35-31.46s27.25-6.93,41.32-6.89c10.31,0,21.57,1.14,30.76,5.32Z" transform="translate(0 -1463.4)"/><path class="cls-1" d="M3214,1736.45c-.4-.85-2.47-1.66-5.27-2.34.31-4.51-.36-11.51-3.63-22.23-3.06-10-20.76-25.82-25.21-29.67a3.38,3.38,0,0,0-.2-1.38c-1.53-3.69-18.27-6.95-20-4.52-.54.78-.2,3,.62,5.77-4.1,1.68-10.28,5.69-18.89,14.92-8.19,8.78-13.34,38-13.34,38s.17-.32.49-.88c-1.76,4,3.47,18.87,6.31,19.12,1,.08,2.69-1.33,4.69-3.43,3.5,2.71,10.06,6.06,22.36,8.9,11.7,2.71,39.56-7.43,39.56-7.43h0C3206.19,1749.55,3215.16,1738.87,3214,1736.45Zm-46.45,11.32a52.32,52.32,0,0,1-18.86-9.62c1.45-2.23,2.42-4,2.48-4.75.22-2.71-19.45-3.47-22.32.27v0c2.46-4.3,10.83-18.37,19.29-26.4a52.22,52.22,0,0,1,17.76-11.52c1.21,2.36,2.27,4.1,2.88,4.52,2,1.35,10.25-11.25,11.06-17.33,2.7,4.66,10.36,18.5,13,29.55a53.92,53.92,0,0,1,1.34,19.56c-2.71-.15-4.8-.1-5.47.22-2.34,1.11,5.85,16.93,10.68,19C3193.82,1751.27,3178.31,1751,3167.58,1747.77Z" transform="translate(0 -1463.4)"/><rect class="cls-3" x="2329.62" y="400.89" width="210.36" height="25.24"/><path class="cls-35" d="M2533.4,1495.88a36.38,36.38,0,0,0-35.33-27.69H2372.92a36.38,36.38,0,0,0-35.33,27.69l-18.45,75h232.71Z" transform="translate(0 -1463.4)"/><path class="cls-35" d="M2322.42,107.52h222.11a24,24,0,0,1,24,24V152a0,0,0,0,1,0,0H2298.41a0,0,0,0,1,0,0V131.53A24,24,0,0,1,2322.42,107.52Z"/><path class="cls-36" d="M2436.25,1615.4H2319.14l35.55,271.23a11.42,11.42,0,0,0,11.33,9.94H2505a11.42,11.42,0,0,0,11.33-9.94l35.55-271.23Z" transform="translate(0 -1463.4)"/><path class="cls-33" d="M2503.42,1538.85l-9.53-45.79a17.66,17.66,0,0,0-17.3-14.07h-86.24a17.67,17.67,0,0,0-17.3,14.07l-9.52,45.79a17.68,17.68,0,0,0,17.3,21.28h105.28A17.68,17.68,0,0,0,2503.42,1538.85Z" transform="translate(0 -1463.4)"/><rect class="cls-6" x="2319.14" y="377.98" width="27.94" height="75.93"/><path class="cls-3" d="M2347.08,1841.39h-7.2c1.07,7.63,2,15.31,1.61,23-.41,9-2.62,18-7.79,25.39a31.88,31.88,0,0,1-8.43,8.23,30.31,30.31,0,0,1-6.13,2.83v16.47h27.94Z" transform="translate(0 -1463.4)"/><path class="cls-37" d="M2319.3,1851.77c-5.87,4.19-10,15-10,27.58s4.17,23.4,10,27.58Z" transform="translate(0 -1463.4)"/><rect class="cls-6" x="2524.42" y="1841.33" width="27.94" height="75.93" transform="translate(5084.68 2284.46) rotate(179.76)"/><path class="cls-3" d="M2524.26,1841.39l7.19,0c-1,7.64-1.89,15.32-1.51,23,.45,9,2.7,18,7.9,25.36a31.88,31.88,0,0,0,8.46,8.2,30,30,0,0,0,6.15,2.8l.06,16.47-27.93.12Z" transform="translate(0 -1463.4)"/><path class="cls-37" d="M2552.08,1851.65c5.88,4.16,10.11,14.91,10.16,27.54s-4.08,23.42-9.93,27.63Z" transform="translate(0 -1463.4)"/><path class="cls-35" d="M2436.25,1615.4H2319.14l1,7.65c53.57,9.26,110.07,1.92,161.5,19.59,13.26,4.56,26.93,11.66,32.86,24.37,3,6.52,3.7,13.85,4.2,21a651.26,651.26,0,0,1-5.12,138.34c-1.79,12.37-4.14,25.2-11.58,35.25-13.81,18.63-40,21.82-63.19,22.85-18.52.82-37.13,1.27-55.56-.71-9.09-1-18.37-2.63-26.18-7.39a34.45,34.45,0,0,1-4.12-3l1.73,13.23a11.42,11.42,0,0,0,11.33,9.94H2505a11.42,11.42,0,0,0,11.33-9.94l35.55-271.23Z" transform="translate(0 -1463.4)"/><path class="cls-8" d="M2333.84,1642.15c-2.11,4.55-1.17,9.85-.21,14.77q14.53,74.44,22.32,150c.59,5.81,3.42,13.49,9.18,12.51,5.33-.91,6-8.22,5.36-13.58-5.79-46.16-14.12-92.45-11.08-138.87.4-6.12,1-12.4-.7-18.3C2356,1639.12,2339.91,1629,2333.84,1642.15Z" transform="translate(0 -1463.4)"/><path class="cls-8" d="M2305.85,1581.55c.16,2.8,2.71,5,5.43,5.68s5.57.25,8.34-.16c28.14-4.17,56.73-3.71,85.17-3.92a7.15,7.15,0,0,0,3.44-.6,2.47,2.47,0,0,0,1.3-2.93c-.48-1.13-1.9-1.45-3.12-1.59a149.6,149.6,0,0,0-17.2-.64l-46.72.06C2337,1577.46,2305.39,1573.71,2305.85,1581.55Z" transform="translate(0 -1463.4)"/><path class="cls-34" d="M2493.89,1493.06a17.66,17.66,0,0,0-17.3-14.07h-86.24a17.67,17.67,0,0,0-17.3,14.07l-9.52,45.79a17.68,17.68,0,0,0,17.3,21.28h23a29.06,29.06,0,0,1-4-17.91c1.65-14,12.57-25.57,25.35-31.46s27.25-6.93,41.32-6.89c10.31,0,21.57,1.14,30.76,5.32Z" transform="translate(0 -1463.4)"/><path class="cls-38" d="M2481.71,1736.45c-.4-.85-2.47-1.66-5.27-2.34.31-4.51-.36-11.51-3.63-22.23-3.06-10-20.76-25.82-25.21-29.67a3.38,3.38,0,0,0-.2-1.38c-1.53-3.69-18.27-6.95-20-4.52-.54.78-.2,3,.62,5.77-4.1,1.68-10.28,5.69-18.89,14.92-8.19,8.78-13.34,38-13.34,38s.17-.32.49-.88c-1.76,4,3.48,18.87,6.31,19.12.95.08,2.69-1.33,4.69-3.43,3.5,2.71,10.07,6.06,22.36,8.9,11.7,2.71,39.56-7.43,39.56-7.43h0C2473.87,1749.55,2482.85,1738.87,2481.71,1736.45Zm-46.45,11.32a52.32,52.32,0,0,1-18.86-9.62c1.45-2.23,2.42-4,2.48-4.75.22-2.71-19.45-3.47-22.32.27v0c2.46-4.3,10.83-18.37,19.29-26.4a52.32,52.32,0,0,1,17.76-11.52c1.21,2.36,2.28,4.1,2.88,4.52,2,1.35,10.25-11.25,11.06-17.33,2.7,4.66,10.37,18.5,13,29.55a53.92,53.92,0,0,1,1.34,19.56c-2.71-.15-4.8-.1-5.47.22-2.34,1.11,5.85,16.93,10.68,19C2461.5,1751.27,2446,1751,2435.26,1747.77Z" transform="translate(0 -1463.4)"/><rect class="cls-3" x="2695.78" y="400.89" width="210.36" height="25.24"/><path class="cls-39" d="M2899.56,1495.88a36.39,36.39,0,0,0-35.33-27.69H2739.08a36.38,36.38,0,0,0-35.33,27.69l-18.45,75H2918Z" transform="translate(0 -1463.4)"/><path class="cls-39" d="M2688.58,107.52h222.11a24,24,0,0,1,24,24V152a0,0,0,0,1,0,0H2664.57a0,0,0,0,1,0,0V131.53A24,24,0,0,1,2688.58,107.52Z"/><path class="cls-40" d="M2802.41,1615.4H2685.3l35.55,271.23a11.42,11.42,0,0,0,11.33,9.94h139a11.42,11.42,0,0,0,11.33-9.94L2918,1615.4Z" transform="translate(0 -1463.4)"/><path class="cls-33" d="M2869.57,1538.85l-9.52-45.79a17.66,17.66,0,0,0-17.3-14.07h-86.24a17.66,17.66,0,0,0-17.3,14.07l-9.52,45.79a17.68,17.68,0,0,0,17.3,21.28h105.28A17.67,17.67,0,0,0,2869.57,1538.85Z" transform="translate(0 -1463.4)"/><rect class="cls-6" x="2685.3" y="377.98" width="27.94" height="75.93"/><path class="cls-3" d="M2713.24,1841.39H2706c1.07,7.63,2,15.31,1.61,23-.41,9-2.62,18-7.79,25.39a31.88,31.88,0,0,1-8.43,8.23,30.31,30.31,0,0,1-6.13,2.83v16.47h27.94Z" transform="translate(0 -1463.4)"/><path class="cls-39" d="M2685.46,1851.77c-5.87,4.19-10,15-10,27.58s4.17,23.4,10,27.58Z" transform="translate(0 -1463.4)"/><rect class="cls-6" x="2890.58" y="1841.33" width="27.94" height="75.93" transform="translate(5816.99 2282.92) rotate(179.76)"/><path class="cls-3" d="M2890.42,1841.39l7.19,0c-1,7.64-1.89,15.32-1.51,23,.45,9,2.7,18,7.9,25.36a31.88,31.88,0,0,0,8.46,8.2,30.22,30.22,0,0,0,6.14,2.8l.07,16.47-27.93.12Z" transform="translate(0 -1463.4)"/><path class="cls-39" d="M2918.24,1851.65c5.88,4.16,10.11,14.91,10.16,27.54s-4.08,23.42-9.93,27.63Z" transform="translate(0 -1463.4)"/><path class="cls-39" d="M2802.41,1615.4H2685.3l1,7.65c53.58,9.26,110.08,1.92,161.51,19.59,13.26,4.56,26.93,11.66,32.86,24.37,3,6.52,3.7,13.85,4.2,21a651.26,651.26,0,0,1-5.12,138.34c-1.79,12.37-4.14,25.2-11.58,35.25-13.82,18.63-40,21.82-63.19,22.85-18.52.82-37.13,1.27-55.56-.71-9.09-1-18.37-2.63-26.18-7.39a35.38,35.38,0,0,1-4.13-3l1.74,13.23a11.42,11.42,0,0,0,11.33,9.94h139a11.42,11.42,0,0,0,11.33-9.94L2918,1615.4Z" transform="translate(0 -1463.4)"/><path class="cls-21" d="M2700,1642.15c-2.11,4.55-1.17,9.85-.21,14.77q14.53,74.44,22.32,150c.59,5.81,3.42,13.49,9.18,12.51,5.33-.91,6-8.22,5.36-13.58-5.79-46.16-14.12-92.45-11.08-138.87.4-6.12,1-12.4-.7-18.3C2722.13,1639.12,2706.07,1629,2700,1642.15Z" transform="translate(0 -1463.4)"/><path class="cls-21" d="M2672,1581.55c.16,2.8,2.71,5,5.43,5.68s5.57.25,8.34-.16c28.14-4.17,56.73-3.71,85.17-3.92a7.15,7.15,0,0,0,3.44-.6,2.47,2.47,0,0,0,1.3-2.93c-.48-1.13-1.91-1.45-3.12-1.59a149.6,149.6,0,0,0-17.2-.64l-46.72.06C2703.17,1577.46,2671.55,1573.71,2672,1581.55Z" transform="translate(0 -1463.4)"/><path class="cls-34" d="M2860.05,1493.06a17.66,17.66,0,0,0-17.3-14.07h-86.24a17.66,17.66,0,0,0-17.3,14.07l-9.52,45.79a17.68,17.68,0,0,0,17.3,21.28h23a29.06,29.06,0,0,1-4-17.91c1.65-14,12.57-25.57,25.35-31.46s27.25-6.93,41.32-6.89c10.31,0,21.57,1.14,30.76,5.32Z" transform="translate(0 -1463.4)"/><path class="cls-1" d="M2847.87,1736.45c-.4-.85-2.47-1.66-5.27-2.34.31-4.51-.36-11.51-3.63-22.23-3.06-10-20.76-25.82-25.21-29.67a3.38,3.38,0,0,0-.2-1.38c-1.53-3.69-18.27-6.95-20-4.52-.54.78-.2,3,.62,5.77-4.1,1.68-10.28,5.69-18.89,14.92-8.19,8.78-13.34,38-13.34,38s.17-.32.49-.88c-1.76,4,3.48,18.87,6.31,19.12.95.08,2.69-1.33,4.69-3.43,3.5,2.71,10.06,6.06,22.36,8.9,11.7,2.71,39.56-7.43,39.56-7.43h-.05C2840,1749.55,2849,1738.87,2847.87,1736.45Zm-46.45,11.32a52.32,52.32,0,0,1-18.86-9.62c1.45-2.23,2.42-4,2.48-4.75.22-2.71-19.45-3.47-22.32.27v0c2.46-4.3,10.83-18.37,19.29-26.4a52.22,52.22,0,0,1,17.76-11.52c1.21,2.36,2.27,4.1,2.88,4.52,2,1.35,10.25-11.25,11.06-17.33,2.7,4.66,10.36,18.5,13,29.55a53.92,53.92,0,0,1,1.34,19.56c-2.71-.15-4.8-.1-5.47.22-2.34,1.11,5.85,16.93,10.68,19C2827.66,1751.27,2812.15,1751,2801.42,1747.77Z" transform="translate(0 -1463.4)"/><rect class="cls-3" x="3427.61" y="396.61" width="210.36" height="25.24"/><path class="cls-41" d="M3631.39,1491.6a36.38,36.38,0,0,0-35.33-27.7H3470.92a36.38,36.38,0,0,0-35.33,27.7l-18.45,75.05h232.7Z" transform="translate(0 -1463.4)"/><path class="cls-34" d="M3420.41,103.24h222.11a24,24,0,0,1,24,24v20.47a0,0,0,0,1,0,0H3396.41a0,0,0,0,1,0,0V127.24A24,24,0,0,1,3420.41,103.24Z"/><path class="cls-34" d="M3534.25,1611.12H3417.14l35.54,271.23a11.44,11.44,0,0,0,11.33,9.94h139a11.44,11.44,0,0,0,11.33-9.94l35.54-271.23Z" transform="translate(0 -1463.4)"/><path class="cls-32" d="M3601.41,1534.57l-9.52-45.79a17.67,17.67,0,0,0-17.31-14.07h-86.23a17.66,17.66,0,0,0-17.3,14.07l-9.53,45.79a17.68,17.68,0,0,0,17.31,21.27h105.28A17.68,17.68,0,0,0,3601.41,1534.57Z" transform="translate(0 -1463.4)"/><rect class="cls-6" x="3417.14" y="373.7" width="27.94" height="75.93"/><path class="cls-3" d="M3445.07,1837.1h-7.19c1.06,7.64,2,15.32,1.61,23-.41,9-2.63,18.06-7.79,25.4a32,32,0,0,1-8.43,8.23,30.78,30.78,0,0,1-6.13,2.82V1913h27.93Z" transform="translate(0 -1463.4)"/><path class="cls-34" d="M3417.3,1847.49c-5.87,4.18-10.05,15-10.05,27.58s4.18,23.4,10.05,27.58Z" transform="translate(0 -1463.4)"/><rect class="cls-6" x="3622.41" y="1837.05" width="27.94" height="75.93" transform="translate(7280.64 2271.27) rotate(179.76)"/><path class="cls-3" d="M3622.25,1837.11l7.2,0c-1,7.65-1.9,15.33-1.51,23,.45,9,2.7,18,7.89,25.36a32.07,32.07,0,0,0,8.47,8.2,31.08,31.08,0,0,0,6.14,2.8l.07,16.47-27.94.12Z" transform="translate(0 -1463.4)"/><path class="cls-34" d="M3650.08,1847.37c5.88,4.16,10.1,14.91,10.15,27.54s-4.07,23.41-9.92,27.63Z" transform="translate(0 -1463.4)"/><path class="cls-34" d="M3534.25,1611.12H3417.14l1,7.65c53.58,9.26,110.08,1.92,161.51,19.59,13.26,4.55,26.93,11.66,32.85,24.37,3,6.52,3.7,13.85,4.2,21a651.26,651.26,0,0,1-5.11,138.34c-1.79,12.37-4.15,25.2-11.59,35.24-13.81,18.64-40,21.83-63.18,22.85-18.53.83-37.13,1.27-55.57-.7-9.09-1-18.37-2.63-26.17-7.39a35.71,35.71,0,0,1-4.13-3l1.73,13.23a11.44,11.44,0,0,0,11.33,9.94h139a11.44,11.44,0,0,0,11.33-9.94l35.54-271.23Z" transform="translate(0 -1463.4)"/><path class="cls-8" d="M3431.83,1637.87c-2.1,4.54-1.16,9.85-.2,14.77q14.53,74.43,22.31,150c.6,5.81,3.43,13.5,9.19,12.51,5.32-.9,6-8.21,5.35-13.57-5.78-46.16-14.12-92.45-11.07-138.87.4-6.12,1-12.4-.71-18.3C3454,1634.83,3437.9,1624.75,3431.83,1637.87Z" transform="translate(0 -1463.4)"/><path class="cls-8" d="M3403.84,1577.27c.17,2.8,2.72,5,5.43,5.68s5.58.25,8.35-.16c28.14-4.17,56.72-3.71,85.17-3.92a7.13,7.13,0,0,0,3.43-.6,2.48,2.48,0,0,0,1.31-2.93c-.49-1.13-1.91-1.45-3.13-1.59a149.51,149.51,0,0,0-17.2-.64l-46.72.06C3435,1573.18,3403.39,1569.43,3403.84,1577.27Z" transform="translate(0 -1463.4)"/><path class="cls-33" d="M3591.89,1488.78a17.67,17.67,0,0,0-17.31-14.07h-86.23a17.66,17.66,0,0,0-17.3,14.07l-9.53,45.79a17.68,17.68,0,0,0,17.31,21.27h23a29.08,29.08,0,0,1-4-17.9c1.65-14,12.57-25.58,25.36-31.46s27.24-6.93,41.32-6.89c10.3,0,21.57,1.14,30.75,5.32Z" transform="translate(0 -1463.4)"/><path class="cls-1" d="M3579.71,1732.17c-.41-.86-2.48-1.66-5.27-2.34.3-4.51-.36-11.51-3.64-22.23-3.06-10-20.76-25.83-25.2-29.68a3.35,3.35,0,0,0-.21-1.37c-1.53-3.69-18.26-7-20-4.52-.54.78-.19,3,.62,5.77-4.1,1.68-10.28,5.69-18.88,14.91-8.2,8.79-13.35,38-13.35,38l.49-.87c-1.75,4,3.48,18.87,6.32,19.11.94.08,2.69-1.32,4.69-3.42,3.5,2.71,10.06,6.06,22.36,8.9,11.7,2.71,39.56-7.43,39.56-7.43h-.06C3571.87,1745.27,3580.84,1734.59,3579.71,1732.17Zm-46.45,11.32a52.23,52.23,0,0,1-18.86-9.62c1.44-2.23,2.41-4,2.47-4.75.23-2.71-19.44-3.48-22.31.27v0c2.46-4.3,10.82-18.37,19.28-26.4a52.34,52.34,0,0,1,17.77-11.52c1.2,2.36,2.27,4.1,2.87,4.52,2,1.35,10.26-11.26,11.07-17.34,2.69,4.67,10.36,18.51,13,29.56a53.46,53.46,0,0,1,1.34,19.56c-2.71-.15-4.8-.1-5.47.22-2.34,1.11,5.86,16.93,10.69,19C3559.5,1747,3544,1746.67,3533.26,1743.49Z" transform="translate(0 -1463.4)"/></svg>